<svg xmlns="http://www.w3.org/2000/svg" width="37.515" height="30.043" viewBox="0 0 37.515 30.043">
  <g id="レイヤー_1" data-name="レイヤー 1" transform="translate(0 0)">
    <path id="パス_2032" data-name="パス 2032" d="M29.792,28.007H27.051l0-.562a3.089,3.089,0,1,0-6.177,0v.562H13.43v-.562a3.159,3.159,0,0,0-6.317,0v.562h-2.6a1.685,1.685,0,0,1-1.452-2.539l3.1-5.265a1.691,1.691,0,0,1,1.452-.83h20.4a.563.563,0,0,0,.511-.328L36.34,1.918a.562.562,0,0,0-.511-.795H1.683a.562.562,0,0,0-.529.749L5.726,14.748a.562.562,0,0,1-1.059.376L.1,2.248A1.685,1.685,0,0,1,1.683,0H35.829a1.685,1.685,0,0,1,1.532,2.384l-7.82,17.127a1.688,1.688,0,0,1-1.532.985H7.613a.564.564,0,0,0-.484.277l-3.1,5.265a.562.562,0,0,0,.484.847H6.025a4.282,4.282,0,0,1,8.49,0h5.268a4.212,4.212,0,0,1,8.349,0h1.66a.562.562,0,1,1,0,1.123Z" transform="translate(0.002 0)"/>
    <path id="パス_2033" data-name="パス 2033" d="M57.266,182.194a2.6,2.6,0,1,1,2.6-2.6,2.6,2.6,0,0,1-2.6,2.6Zm0-4.181A1.584,1.584,0,1,0,58.85,179.6,1.584,1.584,0,0,0,57.266,178.014Z" transform="translate(-46.994 -152.151)"/>
    <path id="パス_2034" data-name="パス 2034" d="M154.766,182.194a2.6,2.6,0,1,1,2.6-2.6A2.6,2.6,0,0,1,154.766,182.194Zm0-4.181a1.584,1.584,0,1,0,1.584,1.584A1.584,1.584,0,0,0,154.766,178.014Z" transform="translate(-130.806 -152.151)"/>
  </g>
</svg>
