<svg xmlns="http://www.w3.org/2000/svg" viewBox="0 0 512 512" width="192" height="192"><g class="st0"><path class="st0" d="M487.592 8.508v-.016H383.307l-21.748 82.682H0l51.516 196.211h258.346l-10.002 37.986H61.838l12.879 49.052H337.73l83.387-316.877h65.98c.121.002.234.035.358.035 13.554 0 24.545-10.99 24.545-24.545 0-13.507-10.918-24.454-24.408-24.528zM89.359 238.332l-25.808-98.108h285.07l-25.811 98.108H89.359zm18.004 162.317c-28.355 0-51.426 23.07-51.426 51.43s23.07 51.43 51.426 51.43c28.328 0 51.375-23.07 51.375-51.43s-23.046-51.43-51.375-51.43zm188.133 0c-28.359 0-51.43 23.07-51.43 51.43s23.07 51.43 51.43 51.43c28.328 0 51.375-23.07 51.375-51.43s-23.047-51.43-51.375-51.43z"/></g></svg>