<svg xmlns="http://www.w3.org/2000/svg" viewBox="0 0 691.881 759.322"><defs><style>.cls-1{opacity:0.1;}.cls-2{fill:#8e603e;}.cls-3{fill:#2b8938;}.cls-4{fill:#456768;}.cls-5{fill:#345150;}.cls-6{fill:#abb21c;}.cls-7{fill:#6d9931;}.cls-8{fill:#ca7918;}.cls-9{fill:#ce9134;}</style></defs><title>アセット 4</title><g id="レイヤー_2" data-name="レイヤー 2"><g id="Objects"><polygon class="cls-1" points="691.881 392 388.091 88.21 237.474 95.586 254.142 145.589 315.875 183.864 346.124 228.929 314.64 312.268 244.265 362.272 97.958 542.532 48.213 607.226 200.309 759.322 201.127 758.711 691.881 758.711 691.881 392"/><path class="cls-2" d="M24.54,451.314s87.706-15,206.37-15,203.53,15,203.53,15Z"/><path class="cls-3" d="M341.1,266.32a11.434,11.434,0,0,1,4.352.861c-.01-.286-.021-.572-.021-.861a22.936,22.936,0,0,1,32.93-20.635,35.156,35.156,0,0,1,69.292,8.407v.022c.149,0,.3-.022.444-.022a17.578,17.578,0,1,1,0,35.156h-107a11.464,11.464,0,0,1,0-22.928Z"/><path class="cls-4" d="M204.664,385.152s-14.35-23.917,37.071-49.03,105.235-69.359,87.3-117.192-72.947-51.422-98.059-83.709S204.99,48.905,205.86,41.945s13.92-7.83,13.92-7.83,26.969,73.079,44.369,87.869,86.129,50.459,101.789,80.038,23.709,71.774-26.675,123.126c-20.688,21.087-85.554,40.432-83.814,50.872S204.664,385.152,204.664,385.152Z"/><path class="cls-5" d="M269.092,163.786c-14.315-7.893-27.96-15.97-37.39-28.095-25.113-32.287-25.983-86.316-25.113-93.275s13.92-7.83,13.92-7.83,26.97,73.079,44.369,87.868c5.252,4.464,15.18,10.83,26.913,18.357,0,0,1.85,8.226-3.237,13.477S269.092,163.786,269.092,163.786Z"/><path class="cls-5" d="M205.19,384.743s52.525,1.308,50.785-9.132,63.125-29.785,83.814-50.872c50.383-51.352,42.334-93.546,26.674-123.126,0,0-5.377,57.488-31.854,85.586S217.88,381.242,205.19,384.743Z"/><circle class="cls-3" cx="239.143" cy="458.958" r="137.292"/><path class="cls-6" d="M400.562,279.9a12.565,12.565,0,0,0-7.12,2.2c.063-.726.1-1.457.1-2.2a25.266,25.266,0,1,0-48.162,10.683,8.635,8.635,0,1,0-5.389,14.538v.044h60.569a12.633,12.633,0,0,0,0-25.265Z"/><path class="cls-3" d="M378.731,83.666a12.6,12.6,0,0,0-4.624.884c0-.128.019-.25.019-.378A24.788,24.788,0,0,0,336.09,63.188a38.882,38.882,0,0,0-50.3-30.056,47.915,47.915,0,0,0-91.03-.38,38.878,38.878,0,0,0-49.681,37.355,39.353,39.353,0,0,0,.447,5.923,16.63,16.63,0,1,0-3.131,32.963H378.731a12.664,12.664,0,0,0,0-25.327Z"/><path class="cls-7" d="M333.005,81.027a10.65,10.65,0,0,0-4.057.8c.01-.267.02-.533.02-.8a21.377,21.377,0,0,0-30.694-19.234,32.769,32.769,0,0,0-64.587,7.836l0,.021c-.14,0-.275-.021-.414-.021a16.384,16.384,0,0,0,0,32.768h99.73a10.685,10.685,0,0,0,0-21.37Z"/><path class="cls-6" d="M253.4,92.246a18.782,18.782,0,0,0-10.637,3.284c.093-1.083.151-2.176.151-3.284a37.75,37.75,0,1,0-71.961,15.962,12.9,12.9,0,1,0-8.051,21.723V130h90.5a18.876,18.876,0,0,0,0-37.751Z"/><path class="cls-8" d="M434.44,481.3l-4.91,36-6.54,48-4.68,34.38a10.74,10.74,0,0,1-10.3,9.12H50.97a10.74,10.74,0,0,1-10.3-9.12L35.99,565.3l-6.54-48-4.91-36Z"/><path class="cls-9" d="M458.98,461.314v9.99a10,10,0,0,1-10,10H10a10,10,0,0,1-10-10v-9.99a10,10,0,0,1,10-10H448.98A10,10,0,0,1,458.98,461.314Z"/><path class="cls-9" d="M180.43,608.874a16.712,16.712,0,0,0-15.22,16.31H71.31a8.19,8.19,0,1,1,0-16.38H179.33A8.023,8.023,0,0,1,180.43,608.874Z"/><path class="cls-9" d="M395.87,616.993a8.2,8.2,0,0,1-8.2,8.191h-93.9a16.709,16.709,0,0,0-15.22-16.31,8.023,8.023,0,0,1,1.1-.07H387.67A8.2,8.2,0,0,1,395.87,616.993Z"/><polygon class="cls-9" points="429.53 517.304 422.99 565.304 35.99 565.304 29.45 517.304 429.53 517.304"/></g></g></svg>