<svg xmlns="http://www.w3.org/2000/svg" viewBox="0 0 691.881 759.322"><defs><style>.cls-3{fill:#2b8938}.cls-6{fill:#abb21c}</style></defs><g id="レイヤー_2" data-name="レイヤー 2"><g id="Objects"><path opacity=".1" d="M691.881 392L388.091 88.21l-150.617 7.376 16.668 50.003 61.733 38.275 30.249 45.065-31.484 83.339-70.375 50.004-146.307 180.26-49.745 64.694 152.096 152.096.818-.611h490.754V392z"/><path d="M24.54 451.314s87.706-15 206.37-15 203.53 15 203.53 15z" fill="#8e603e"/><path class="cls-3" d="M341.1 266.32a11.434 11.434 0 0 1 4.352.861c-.01-.286-.021-.572-.021-.861a22.936 22.936 0 0 1 32.93-20.635 35.156 35.156 0 0 1 69.292 8.407v.022c.149 0 .3-.022.444-.022a17.578 17.578 0 1 1 0 35.156h-107a11.464 11.464 0 0 1 0-22.928z"/><path d="M204.664 385.152s-14.35-23.917 37.071-49.03 105.235-69.359 87.3-117.192-72.947-51.422-98.059-83.709-25.986-86.316-25.116-93.276 13.92-7.83 13.92-7.83 26.969 73.079 44.369 87.869 86.129 50.459 101.789 80.038 23.709 71.774-26.675 123.126c-20.688 21.087-85.554 40.432-83.814 50.872s-50.785 9.132-50.785 9.132z" fill="#456768"/><path d="M269.092 163.786c-14.315-7.893-27.96-15.97-37.39-28.095-25.113-32.287-25.983-86.316-25.113-93.275s13.92-7.83 13.92-7.83 26.97 73.079 44.369 87.868c5.252 4.464 15.18 10.83 26.913 18.357 0 0 1.85 8.226-3.237 13.477s-19.462 9.498-19.462 9.498zM205.19 384.743s52.525 1.308 50.785-9.132 63.125-29.785 83.814-50.872c50.383-51.352 42.334-93.546 26.674-123.126 0 0-5.377 57.488-31.854 85.586S217.88 381.242 205.19 384.743z" fill="#345150"/><circle class="cls-3" cx="239.143" cy="458.958" r="137.292"/><path class="cls-6" d="M400.562 279.9a12.565 12.565 0 0 0-7.12 2.2c.063-.726.1-1.457.1-2.2a25.266 25.266 0 1 0-48.162 10.683 8.635 8.635 0 1 0-5.389 14.538v.044h60.569a12.633 12.633 0 0 0 0-25.265z"/><path class="cls-3" d="M378.731 83.666a12.6 12.6 0 0 0-4.624.884c0-.128.019-.25.019-.378a24.788 24.788 0 0 0-38.036-20.984 38.882 38.882 0 0 0-50.3-30.056 47.915 47.915 0 0 0-91.03-.38 38.878 38.878 0 0 0-49.681 37.355 39.353 39.353 0 0 0 .447 5.923 16.63 16.63 0 1 0-3.131 32.963h236.336a12.664 12.664 0 0 0 0-25.327z"/><path d="M333.005 81.027a10.65 10.65 0 0 0-4.057.8c.01-.267.02-.533.02-.8a21.377 21.377 0 0 0-30.694-19.234 32.769 32.769 0 0 0-64.587 7.836v.021c-.14 0-.275-.021-.414-.021a16.384 16.384 0 0 0 0 32.768h99.73a10.685 10.685 0 0 0 0-21.37z" fill="#6d9931"/><path class="cls-6" d="M253.4 92.246a18.782 18.782 0 0 0-10.637 3.284 38.32 38.32 0 0 0 .151-3.284 37.75 37.75 0 1 0-71.961 15.962 12.9 12.9 0 1 0-8.051 21.723V130h90.5a18.876 18.876 0 0 0 0-37.751z"/><path d="M434.44 481.3l-4.91 36-6.54 48-4.68 34.38a10.74 10.74 0 0 1-10.3 9.12H50.97a10.74 10.74 0 0 1-10.3-9.12l-4.68-34.38-6.54-48-4.91-36z" fill="#ca7918"/><path d="M458.98 461.314v9.99a10 10 0 0 1-10 10H10a10 10 0 0 1-10-10v-9.99a10 10 0 0 1 10-10h438.98a10 10 0 0 1 10 10zm-278.55 147.56a16.712 16.712 0 0 0-15.22 16.31h-93.9a8.19 8.19 0 1 1 0-16.38h108.02a8.023 8.023 0 0 1 1.1.07zm215.44 8.119a8.2 8.2 0 0 1-8.2 8.191h-93.9a16.709 16.709 0 0 0-15.22-16.31 8.023 8.023 0 0 1 1.1-.07h108.02a8.2 8.2 0 0 1 8.2 8.189zm33.66-99.689l-6.54 48h-387l-6.54-48h400.08z" fill="#ce9134"/></g></g></svg>